<?xml version="1.0" encoding="UTF-8" standalone="no"?>
<!-- Created with Inkscape (http://www.inkscape.org/) -->

<svg
   width="60.983715mm"
   height="68.413612mm"
   viewBox="0 0 60.983715 68.413612"
   version="1.1"
   id="svg1"
   xml:space="preserve"
   inkscape:version="1.4 (86a8ad7, 2024-10-11)"
   sodipodi:docname="wbw_logo.svg"
   xmlns:inkscape="http://www.inkscape.org/namespaces/inkscape"
   xmlns:sodipodi="http://sodipodi.sourceforge.net/DTD/sodipodi-0.dtd"
   xmlns="http://www.w3.org/2000/svg"
   xmlns:svg="http://www.w3.org/2000/svg"><sodipodi:namedview
     id="namedview1"
     pagecolor="#ffffff"
     bordercolor="#000000"
     borderopacity="0.25"
     inkscape:showpageshadow="2"
     inkscape:pageopacity="0.0"
     inkscape:pagecheckerboard="0"
     inkscape:deskcolor="#d1d1d1"
     inkscape:document-units="mm"
     showgrid="false"
     inkscape:zoom="1.4142136"
     inkscape:cx="-85.913472"
     inkscape:cy="92.984539"
     inkscape:window-width="1920"
     inkscape:window-height="1001"
     inkscape:window-x="-9"
     inkscape:window-y="-9"
     inkscape:window-maximized="1"
     inkscape:current-layer="layer4"
     inkscape:export-bgcolor="#ffffff00"><inkscape:grid
       id="grid1"
       units="mm"
       originx="-104.50814"
       originy="-85.510172"
       spacingx="0.99999998"
       spacingy="1"
       empcolor="#0099e5"
       empopacity="0.30196078"
       color="#0099e5"
       opacity="0.14901961"
       empspacing="5"
       enabled="true"
       visible="false" /></sodipodi:namedview><defs
     id="defs1"><inkscape:path-effect
       effect="fillet_chamfer"
       id="path-effect90"
       is_visible="true"
       lpeversion="1"
       nodesatellites_param="F,0,1,1,0,0,0,1 @ F,0,1,1,0,0,0,1 @ F,0,1,1,0,0,0,1 @ F,0,1,1,0,0,0,1 @ F,0,1,1,0,0,0,1 @ F,0,0,1,0,0,0,1"
       radius="0"
       unit="px"
       method="auto"
       mode="F"
       chamfer_steps="1"
       flexible="false"
       use_knot_distance="true"
       apply_no_radius="true"
       apply_with_radius="true"
       only_selected="false"
       hide_knots="false" /><inkscape:path-effect
       effect="fillet_chamfer"
       id="path-effect89"
       is_visible="true"
       lpeversion="1"
       nodesatellites_param="F,0,0,1,0,1.9633843,0,1 @ F,0,0,1,0,3.7439624,0,1 @ F,0,0,1,0,1.8778394,0,1 @ F,0,0,1,0,2.1100941,0,1 @ F,0,0,1,0,1.8573774,0,1 @ F,0,0,1,0,2.2771975,0,1"
       radius="0"
       unit="px"
       method="auto"
       mode="F"
       chamfer_steps="1"
       flexible="false"
       use_knot_distance="true"
       apply_no_radius="true"
       apply_with_radius="true"
       only_selected="false"
       hide_knots="false" /><inkscape:path-effect
       effect="fillet_chamfer"
       id="path-effect67"
       is_visible="true"
       lpeversion="1"
       nodesatellites_param="F,0,0,1,0,1.9633843,0,1 @ F,0,0,1,0,3.7439624,0,1 @ F,0,0,1,0,1.8778394,0,1 @ F,0,0,1,0,2.1100941,0,1 @ F,0,0,1,0,1.8573774,0,1 @ F,0,0,1,0,2.2771975,0,1"
       radius="0"
       unit="px"
       method="auto"
       mode="F"
       chamfer_steps="1"
       flexible="false"
       use_knot_distance="true"
       apply_no_radius="true"
       apply_with_radius="true"
       only_selected="false"
       hide_knots="false" /><inkscape:path-effect
       effect="fillet_chamfer"
       id="path-effect66"
       is_visible="true"
       lpeversion="1"
       nodesatellites_param="F,0,0,1,0,4.2052405,0,1 @ F,0,0,1,0,5.404798,0,1 @ F,0,0,1,0,5.2612456,0,1 @ F,0,0,1,0,5.0219792,0,1 @ F,0,0,1,0,2.1025904,0,1 @ F,0,0,1,0,6.8231382,0,1 @ F,0,0,1,0,5.2612456,0,1 @ F,0,0,1,0,5.0532436,0,1"
       radius="0"
       unit="px"
       method="auto"
       mode="F"
       chamfer_steps="1"
       flexible="false"
       use_knot_distance="true"
       apply_no_radius="true"
       apply_with_radius="true"
       only_selected="false"
       hide_knots="false" /><inkscape:path-effect
       effect="fillet_chamfer"
       id="path-effect65"
       is_visible="true"
       lpeversion="1"
       nodesatellites_param="F,0,0,1,0,5.8290968,0,1 @ F,0,0,1,0,5.2612422,0,1 @ F,0,0,1,0,5.4047964,0,1 @ F,0,0,1,0,5.4047964,0,1"
       radius="0"
       unit="px"
       method="auto"
       mode="F"
       chamfer_steps="1"
       flexible="false"
       use_knot_distance="true"
       apply_no_radius="true"
       apply_with_radius="true"
       only_selected="false"
       hide_knots="false" /><inkscape:path-effect
       effect="fillet_chamfer"
       id="path-effect63"
       is_visible="true"
       lpeversion="1"
       nodesatellites_param="F,0,0,1,0,0,0,1 @ F,0,0,1,0,0,0,1 @ F,0,0,1,0,0,0,1 @ F,0,0,1,0,0,0,1 @ F,0,0,1,0,0,0,1 @ F,0,0,1,0,0,0,1"
       radius="0"
       unit="px"
       method="auto"
       mode="F"
       chamfer_steps="1"
       flexible="false"
       use_knot_distance="true"
       apply_no_radius="true"
       apply_with_radius="true"
       only_selected="false"
       hide_knots="false" /><inkscape:perspective
       sodipodi:type="inkscape:persp3d"
       inkscape:vp_x="383.81536 : -180.94041 : 1"
       inkscape:vp_y="1099.3852 : -634.73035 : 0"
       inkscape:vp_z="383.81536 : -180.94041 : 1"
       inkscape:persp3d-origin="256.19548 : -107.25904 : 1"
       id="perspective16" /><linearGradient
       id="g"
       x1="0.7414425"
       x2="590.86261"
       y1="3.6658268"
       y2="593.78699"
       gradientUnits="userSpaceOnUse"
       spreadMethod="pad"
       gradientTransform="scale(1.2219423,0.81836924)"><stop
         offset="0"
         stop-color="#cbced0"
         stop-opacity="1"
         id="stop1" /><stop
         offset="1"
         stop-color="#84838b"
         stop-opacity="1"
         id="stop2" /></linearGradient><linearGradient
       id="b"
       x1="0"
       x2="1"
       y1="0"
       y2="1"
       gradientUnits="objectBoundingBox"
       spreadMethod="pad"><stop
         offset="0"
         stop-color="#276dc3"
         stop-opacity="1"
         id="stop3" /><stop
         offset="1"
         stop-color="#165caa"
         stop-opacity="1"
         id="stop4" /></linearGradient></defs><g
     inkscape:groupmode="layer"
     id="layer2"
     inkscape:label="Cube"
     style="display:inline"
     transform="translate(-104.50815,-85.510174)"><path
       id="path1"
       style="display:inline;opacity:1;fill:none;stroke:#000000;stroke-width:1.86213;stroke-linecap:round;stroke-linejoin:round;stroke-dasharray:none"
       transform="matrix(1.1196876,0,0,1.1196876,54.729989,-52.007201)"
       d="m 96.290712,169.78751 -21.358694,12.33145 a 6.4847337,6.4847337 0 0 1 -6.484734,0 L 47.014506,169.74474 a 3.252513,3.252513 60 0 1 -1.626257,-2.81676 l 10e-7,-26.38231 a 3.6547913,3.6547913 119.99999 0 1 1.827395,-3.16514 l 22.865471,-13.20139 a 3.2170702,3.2170702 0 0 1 3.217072,0 l 22.720755,13.11784 a 3.9442227,3.9442227 60.000008 0 1 1.972111,3.4158 l -1e-6,26.12966 a 3.4006813,3.4006813 120 0 1 -1.700341,2.94507 z"
       sodipodi:nodetypes="ccccccc"
       inkscape:path-effect="#path-effect67"
       inkscape:original-d="m 97.991053,168.80582 -26.301402,15.18512 -26.301402,-15.18512 10e-7,-30.37024 26.301402,-15.18513 26.301402,15.18513 z"
       inkscape:export-filename="path1.png"
       inkscape:export-xdpi="300"
       inkscape:export-ydpi="300" /><path
       style="opacity:1;fill:#000000;stroke:#000000;stroke-width:0.260625;stroke-linecap:round;stroke-linejoin:round;stroke-dasharray:none"
       d="m 134.85949,120.46728 c -0.0702,-0.13671 -0.20785,-0.37638 -0.30592,-0.53259 -0.0981,-0.15621 -0.17831,-0.28613 -0.17831,-0.28872 0,-0.003 0.28205,-0.005 0.62677,-0.005 h 0.62677 l -0.0481,0.0734 c -0.0883,0.13479 -0.33408,0.5525 -0.45789,0.77826 -0.0673,0.12278 -0.12542,0.22318 -0.12908,0.2231 -0.004,-8e-5 -0.0641,-0.112 -0.13427,-0.24872 z"
       id="path68" /><path
       style="opacity:1;fill:#000000;stroke:#000000;stroke-width:0.737158;stroke-linecap:round;stroke-linejoin:round;stroke-dasharray:none"
       d="m 162.66964,104.41161 -0.42491,-0.15645 0.0998,-0.51449 0.0998,-0.5145 0.28235,0.42095 c 0.32081,0.47829 0.53717,0.93896 0.43594,0.92819 -0.0375,-0.004 -0.25937,-0.0777 -0.49306,-0.1637 z"
       id="path69" /><path
       style="opacity:1;fill:#000000;stroke:#000000;stroke-width:0.737158;stroke-linecap:round;stroke-linejoin:round;stroke-dasharray:none"
       d="m 106.93244,104.09146 c 0.2729,-0.51565 0.38998,-0.64536 0.46944,-0.52008 0.15978,0.25195 0.0865,0.54583 -0.15939,0.63932 -0.36617,0.13922 -0.4332,0.11344 -0.31005,-0.11924 z"
       id="path70" /><path
       style="opacity:1;fill:#000000;stroke:#000000;stroke-width:1.0425;stroke-linecap:round;stroke-linejoin:round;stroke-dasharray:none"
       d="m 133.77233,151.64839 c -0.11076,-0.0444 0.0219,-0.2126 0.36881,-0.46771 l 0.5418,-0.39844 0.46438,0.47815 0.46437,0.47815 -0.83319,-0.0104 c -0.45825,-0.006 -0.91103,-0.0416 -1.00617,-0.0797 z"
       id="path71" /><path
       style="opacity:1;fill:#ffffff;stroke:#000000;stroke-width:2.085;stroke-linecap:round;stroke-linejoin:round;stroke-dasharray:none"
       d="M 138.64184,88.097422 159.76867,100.295 a 3.1204613,3.1204613 90.000007 0 1 0,5.4048 l -20.2123,11.66957 a 9.1127463,9.1127463 4.2122821e-6 0 1 -9.11274,0 l -20.54382,-11.86098 a 2.8994411,2.8994411 150 0 0 -4.34916,2.51099 l 0,26.88061 a 3.6417934,3.6417934 60 0 0 1.8209,3.15389 l 21.71944,12.53972 A 3.9393407,3.9393407 150 0 0 135,147.18203 v -21.92079 a 9.1127447,9.1127447 60 0 0 -4.55637,-7.89187 l -20.51674,-11.84535 a 2.9174923,2.9174923 89.999993 0 1 0,-5.05324 l 21.43127,-12.373358 a 7.2836876,7.2836876 180 0 1 7.28368,0 z"
       id="path4"
       inkscape:path-effect="#path-effect66"
       inkscape:original-d="M 135,85.994801 164.44936,102.9974 135,119.99999 105.55065,102.9974 v 34.00518 L 135,154.00517 V 119.99999 L 105.55065,102.9974 Z" /><path
       style="opacity:1;fill:#ffffff;stroke:#000000;stroke-width:2.085;stroke-linecap:round;stroke-linejoin:round;stroke-dasharray:none"
       d="m 135,148.17607 v -22.91484 a 9.1127372,9.1127372 120 0 1 4.55637,-7.89186 l 20.2123,-11.66957 a 3.1204612,3.1204612 30.000004 0 1 4.68069,2.7024 v 23.19558 a 9.3613803,9.3613803 120 0 1 -4.68069,8.1072 l -19.72052,11.38564 A 3.3654312,3.3654312 30.000004 0 1 135,148.17607 Z"
       id="path5"
       inkscape:path-effect="#path-effect65"
       inkscape:original-d="m 135,154.00517 v -34.00518 l 29.44936,-17.00259 v 34.00518 z" /></g><g
     inkscape:groupmode="layer"
     id="layer3"
     inkscape:label="TextBackgrounds"
     style="display:none;fill:#ff0000"
     transform="translate(-104.50815,-85.510174)"><path
       style="display:inline;opacity:1;fill:#ff0000;stroke:#008000;stroke-width:0.75;stroke-linecap:round;stroke-linejoin:round;stroke-dasharray:none"
       d="M 135,90.245448 112.91299,102.9974 135,115.74934 157.08702,102.9974 Z"
       id="path96"
       sodipodi:nodetypes="ccccc" /><path
       style="display:inline;opacity:1;fill:#ff0000;stroke:#008000;stroke-width:0.75;stroke-linecap:round;stroke-linejoin:round;stroke-dasharray:none"
       d="m 109.23182,109.37337 22.08701,12.75193 v 25.5039 l -22.08701,-12.75195 z"
       id="path97" /><path
       style="display:inline;opacity:1;fill:#ff0000;stroke:#008000;stroke-width:0.75;stroke-linecap:round;stroke-linejoin:round;stroke-dasharray:none"
       d="m 138.68117,147.6292 v -25.5039 l 22.08702,-12.75193 -1e-5,25.50388 z"
       id="path98" /></g><g
     inkscape:groupmode="layer"
     id="layer4"
     inkscape:label="Text"
     style="display:inline"><text
       xml:space="preserve"
       style="font-style:normal;font-variant:normal;font-weight:800;font-stretch:normal;font-size:9.87778px;font-family:'Recursive Sans Linear Static';-inkscape-font-specification:'Recursive Sans Linear Static, Ultra-Bold';font-variant-ligatures:normal;font-variant-caps:normal;font-variant-numeric:normal;font-variant-east-asian:normal;text-align:start;letter-spacing:0px;word-spacing:0px;writing-mode:lr-tb;direction:ltr;text-orientation:upright;text-anchor:start;display:inline;opacity:1;fill:#1a1a1a;stroke:none;stroke-width:1;stroke-linecap:round;stroke-linejoin:round;stroke-dasharray:none"
       x="103.17908"
       y="62.733273"
       id="text98"
       transform="matrix(1.0224493,0.5995411,0.03631909,0.9993403,-104.50815,-85.510174)"><tspan
         sodipodi:role="line"
         id="tspan98"
         style="font-style:normal;font-variant:normal;font-weight:800;font-stretch:normal;font-size:9.87778px;font-family:'Recursive Sans Linear Static';-inkscape-font-specification:'Recursive Sans Linear Static, Ultra-Bold';font-variant-ligatures:normal;font-variant-caps:normal;font-variant-numeric:normal;font-variant-east-asian:normal;text-align:start;letter-spacing:0px;word-spacing:0px;writing-mode:lr-tb;text-anchor:start;stroke-width:1"
         x="103.17908"
         y="62.733273">WbW</tspan></text><text
       xml:space="preserve"
       style="font-style:normal;font-variant:normal;font-weight:800;font-stretch:normal;font-size:9.87778px;font-family:'Recursive Sans Linear Static';-inkscape-font-specification:'Recursive Sans Linear Static, Ultra-Bold';font-variant-ligatures:normal;font-variant-caps:normal;font-variant-numeric:normal;font-variant-east-asian:normal;text-align:start;letter-spacing:0px;word-spacing:-1.85208px;writing-mode:lr-tb;direction:ltr;text-orientation:upright;text-anchor:start;display:inline;opacity:1;fill:#1a1a1a;stroke:none;stroke-width:1;stroke-linecap:round;stroke-linejoin:round;stroke-dasharray:none"
       x="32.590942"
       y="70.593315"
       id="text99"
       transform="matrix(0.98025716,-0.55235921,0.0436265,0.99555764,0,0)"><tspan
         sodipodi:role="line"
         id="tspan99"
         style="font-style:normal;font-variant:normal;font-weight:800;font-stretch:normal;font-size:9.87778px;font-family:'Recursive Sans Linear Static';-inkscape-font-specification:'Recursive Sans Linear Static, Ultra-Bold';font-variant-ligatures:normal;font-variant-caps:normal;font-variant-numeric:normal;font-variant-east-asian:normal;word-spacing:-1.85208px;stroke-width:1"
         x="32.590942"
         y="70.593315">for R</tspan></text><g
       id="g1"
       transform="matrix(0.02223907,0,0,0.02223907,63.046031,31.768145)"
       style="display:none;fill:#000000"><path
         d="m -801.734,768.556 c -174.36,100.667 -315.706,40.524 -315.706,-134.334 0,-174.859 141.346,-398.217 315.707,-498.884 174.361,-100.6676 315.708,-40.5239 315.708,134.335 0,174.858 -141.347,398.215 -315.709,498.883 z m 48.325,-537.335 c -132.529,76.516 -239.966,235.451 -239.966,354.992 0,119.54 107.437,154.419 239.966,77.903 132.529,-76.516 230.333,-199.236 230.333,-349.43 0,-150.148 -97.804,-159.98 -230.333,-83.465 z"
         fill="url(#g)"
         fill-rule="evenodd"
         id="path4-0"
         style="fill:#000000" /><path
         d="m -636.635,530.4 c 0,0 19.109,-2.398 30.21,-0.396 3.852,0.695 10.516,2.671 15.324,7.543 4.709,4.77 7.005,11.034 7.005,11.034 l 75.305,146.644 -121.714,70.352 -56.917,-127.184 c 0,0 -11.654,-23.257 -18.826,-27.811 -5.982,-3.798 -8.533,-4.907 -14.448,-1.492 l -28.919,16.696 0.023,208.431 -107.703,62.251 V 364.013 l 216.282,-124.871 c 0,0 98.51,-54.214 98.51,86.126 0,140.339 -94.132,205.132 -94.132,205.132 z m -46.846,-151.242 -65.203,37.582 -0.032,90.555 65.235,-37.695 c 0,0 30.209,-17.581 30.209,-63.496 0,-46.838 -30.209,-26.946 -30.209,-26.946 z"
         fill="url(#b"
         fill-rule="evenodd"
         id="path5-9"
         style="fill:#000000" /></g></g><text
     xml:space="preserve"
     style="font-style:normal;font-variant:normal;font-weight:800;font-stretch:normal;font-size:12.7px;font-family:'Recursive Sans Linear Static';-inkscape-font-specification:'Recursive Sans Linear Static, Ultra-Bold';font-variant-ligatures:normal;font-variant-caps:normal;font-variant-numeric:normal;font-variant-east-asian:normal;text-align:start;letter-spacing:0px;word-spacing:0px;writing-mode:lr-tb;direction:ltr;text-orientation:upright;text-anchor:start;display:none;fill:#1a1a1a;stroke-width:1;stroke-linecap:round;stroke-linejoin:round"
     x="123.69539"
     y="64.182068"
     id="text1"
     transform="translate(-104.50815,-85.510174)"><tspan
       sodipodi:role="line"
       id="tspan1"
       style="font-style:normal;font-variant:normal;font-weight:800;font-stretch:normal;font-size:12.7px;font-family:'Recursive Sans Linear Static';-inkscape-font-specification:'Recursive Sans Linear Static, Ultra-Bold';font-variant-ligatures:normal;font-variant-caps:normal;font-variant-numeric:normal;font-variant-east-asian:normal;fill:#1a1a1a;stroke-width:1"
       x="123.69539"
       y="64.182068">WbW for R</tspan></text></svg>
